{"title":"Deep Water - S01E02","uid":15969852,"size":455415079,"categoryP":"video","categoryS":"tv_shows","magnet":"?xt=urn:btih:328e9d2f0cb3b6e2a28687fd4f1f1a4cf7ecb714&amp;dn=Deep+Water+-+S01E02&amp;tr=udp%3A%2F%2Ftracker.leechers-paradise.org%3A6969&amp;tr=udp%3A%2F%2Fzer0day.ch%3A1337&amp;tr=udp%3A%2F%2Fopen.demonii.com%3A1337&amp;tr=udp%3A%2F%2Ftracker.coppersurfer.tk%3A6969&amp;tr=udp%3A%2F%2Fexodus.desync.com%3A6969","seeders":34,"leechers":4,"uploader":"Bullrout","files":1,"time":1475767088,"description":"Deep Water - S01E02\r\n\r\nAfter a fatal shooting, tensions rise between Tori &amp; Nick. Another body is found &amp; evidence links a former football legend to the past crimes.\r\n\r\nComplete name                            : Deep Water - S01E02.mp4\r\nFormat                                   : MPEG-4\r\nFormat profile                           : Base Media / Version 2\r\nCodec ID                                 : mp42 (mp42/isom/avc1)\r\nFile size                                : 434 MiB\r\nDuration                                 : 54 min 48 s\r\nOverall bit rate mode                    : Variable\r\nOverall bit rate                         : 1 108 kb/s\r\n\r\nVideo\r\nID                                       : 2\r\nFormat                                   : AVC\r\nFormat/Info                              : Advanced Video Codec\r\nFormat profile                           :   \r\nFormat settings, CABAC                   : Yes\r\nFormat settings, ReFrames                : 3 frames\r\nCodec ID                                 : avc1\r\nCodec ID/Info                            : Advanced Video Coding\r\nDuration                                 : 54 min 48 s\r\nBit rate mode                            : Variable\r\nBit rate                                 : 977 kb/s\r\nMaximum bit rate                         : 1 000 kb/s\r\nWidth                                    : 720 pixels\r\nHeight                                   : 404 pixels\r\nDisplay aspect ratio                     : 16:9\r\nOriginal display aspect ratio            : 16:9\r\nFrame rate mode                          : Constant\r\nFrame rate                               : 25.000 FPS\r\nStandard                                 : PAL\r\nColor space                              : YUV\r\nChroma subsampling                       : 4:2:0\r\nBit depth                                : 8 bits\r\nScan type                                : Progressive\r\nBits/(Pixel*Frame)                       : 0.134\r\nStream size                              : 383 MiB (88%)\r\nWriting library                          : x264 core 112\r\nColor range                              : Limited\r\nColor primaries                          : BT.601 PAL\r\nTransfer characteristics                 : BT.470 System B, BT.470 System G\r\nMatrix coefficients                      : BT.601\r\n\r\nAudio\r\nID                                       : 1\r\nFormat                                   : AAC\r\nFormat/Info                              : Advanced Audio Codec\r\nFormat profile                           : LC\r\nCodec ID                                 : 40\r\nDuration                                 : 54 min 48 s\r\nBit rate mode                            : Variable\r\nBit rate                                 : 128 kb/s\r\nMaximum bit rate                         : 576 kb/s\r\nChannel(s)                               : 2 channels\r\nChannel positions                        : Front: L R\r\nSampling rate                            : 48.0 kHz\r\nFrame rate                               : 46.875 FPS (1024 spf)\r\nCompression mode                         : Lossy\r\nStream size                              : 50.2 MiB (12%)","torrent":{"xt":"urn:btih:328e9d2f0cb3b6e2a28687fd4f1f1a4cf7ecb714","amp;dn":"Deep+Water+-+S01E02","amp;tr":["udp%3A%2F%2Ftracker.leechers-paradise.org%3A6969","udp%3A%2F%2Fzer0day.ch%3A1337","udp%3A%2F%2Fopen.demonii.com%3A1337","udp%3A%2F%2Ftracker.coppersurfer.tk%3A6969","udp%3A%2F%2Fexodus.desync.com%3A6969"],"infoHash":"328e9d2f0cb3b6e2a28687fd4f1f1a4cf7ecb714","infoHashBuffer":{"type":"Buffer","data":[50,142,157,47,12,179,182,226,162,134,135,253,79,31,26,76,247,236,183,20]},"announce":[],"urlList":[]}}